<svg width="20" height="20" viewBox="0 0 20 20" fill="none" xmlns="http://www.w3.org/2000/svg">
<path d="M8.93752 11.5C12.0156 11.5 14.5094 13.9937 14.5094 17.0719C14.5094 17.5844 14.0938 18 13.5813 18H2.43752C1.92502 18 1.5094 17.5844 1.5094 17.0719C1.5094 13.9937 4.00315 11.5 7.08127 11.5H8.93752ZM18.3032 5.30937C18.5469 4.975 19.0157 4.9 19.35 5.14375C19.6844 5.3875 19.7594 5.85625 19.5156 6.19063L16.3156 10.5906C16.1844 10.7687 15.9813 10.8844 15.7625 10.8969C15.5438 10.9094 15.325 10.8281 15.1719 10.6687L13.7219 9.16875C13.4344 8.87187 13.4407 8.39687 13.7407 8.10938C14.0375 7.82188 14.5125 7.83125 14.8 8.12813L15.6281 8.98438L18.3032 5.30625V5.30937ZM8.0094 9.75C5.93752 9.75 4.2594 8.07188 4.2594 6C4.2594 3.92812 5.93752 2.25 8.0094 2.25C10.0813 2.25 11.7594 3.92812 11.7594 6C11.7594 8.07188 10.0813 9.75 8.0094 9.75Z" fill="white"/>
</svg>
